<?xml version="1.0" encoding="utf-8"?>
<!-- Generator: Adobe Illustrator 24.0.1, SVG Export Plug-In . SVG Version: 6.00 Build 0)  -->
<svg version="1.1" id="Hand_Phones_Clouds" xmlns="http://www.w3.org/2000/svg" xmlns:xlink="http://www.w3.org/1999/xlink" x="0px"
	 y="0px" viewBox="0 0 840 562" style="enable-background:new 0 0 840 562;" xml:space="preserve">
<style type="text/css">
	.st0{fill:url(#SVGID_1_);}
	.st1{fill:#FFFFFF;}
	.st2{fill:none;}
	.st3{font-family:'Spezia-WideMedium';}
	.st4{font-size:31.5996px;}
	.st5{fill:url(#SVGID_2_);}
	.st6{fill:#80C7F5;}
	.st7{font-family:'Spezia-SemiMonoSemiBold';}
	.st8{font-size:47.3995px;}
	.st9{letter-spacing:1;}
</style>
<g>
	<g>
		<g id="Layer_2_3_">
			<g>
				<g>
					<path d="M684.2,395.1V85.7c0-9.9-8.1-18-18-18H170.7c-9.9,0-18,8.1-18,18v309.4H684.2z"/>
				</g>
				<linearGradient id="SVGID_1_" gradientUnits="userSpaceOnUse" x1="419.24" y1="49.0978" x2="419.24" y2="428.0391">
					<stop  offset="0" style="stop-color:#D6219C"/>
					<stop  offset="1" style="stop-color:#FFA68C"/>
				</linearGradient>
				<polygon class="st0" points="172.2,377.1 172.2,88.7 666.3,88.7 666.3,377.1 				"/>
			</g>
		</g>
		<path d="M855.3,493.7c-2.4,11.9-12.6,20.9-24.7,20.9H8.1c-12,0-22.1-10.2-24.5-23.8c-0.4,2-0.6,4.2-0.6,6.3v2
			c0,16.7,11.3,30.3,25.1,30.3h822.6c13.9,0,25.3-11.9,25.3-26.4v-1.8C855.9,499.3,855.7,495.5,855.3,493.7z"/>
		<polygon points="43.8,484.5 43.8,490.9 108.1,490.9 153.1,458.8 153.1,452.4 108.1,484.5 		"/>
		<polygon points="140.1,484.5 140.1,490.9 204.4,490.9 236.5,458.8 236.5,452.4 204.4,484.5 		"/>
		<polygon points="506.9,490.9 330.6,490.9 339.5,476.7 339.8,484.5 499.3,484.5 502.3,477.7 		"/>
		<polygon points="117.7,440.8 117.7,445.9 169.2,445.9 198,423.4 198,418.3 169.2,440.8 		"/>
		<polygon points="194.8,440.8 194.8,445.9 246.2,445.9 265.5,426.7 265.5,421.5 246.2,440.8 		"/>
		<polygon points="275.1,440.8 275.1,445.9 326.4,445.9 336,426.7 336,421.5 326.4,440.8 		"/>
		<polygon points="348.4,440.8 348.4,445.9 403,445.9 401.7,426.7 399.7,440.8 		"/>
		<polygon points="491.3,440.8 491.3,445.9 436.7,445.9 438,426.7 439.9,440.8 		"/>
		<polygon points="248.3,485.4 248.3,490.9 303.5,490.9 313.8,470.3 313.8,464.6 303.5,485.4 		"/>
		<polygon points="795.2,484.5 795.2,490.9 731,490.9 686.1,458.8 686.1,452.4 731,484.5 		"/>
		<polygon points="698.9,484.5 698.9,490.9 634.7,490.9 602.5,458.8 602.5,452.4 634.7,484.5 		"/>
		<polygon points="721.3,440.8 721.3,445.9 670,445.9 641.1,423.4 641.1,418.3 670,440.8 		"/>
		<polygon points="644.3,440.8 644.3,445.9 592.9,445.9 573.6,426.7 573.6,421.5 592.9,440.8 		"/>
		<polygon points="564.1,440.8 564.1,445.9 512.7,445.9 503,426.7 503,421.5 512.7,440.8 		"/>
		<polygon points="590.4,485.2 590.4,490.9 533.1,490.9 522.3,469.5 522.3,463.6 533.1,485.2 		"/>
	</g>
	<g>
		<rect x="545.1" y="225.2" class="st1" width="42.9" height="60"/>
		<rect x="251" y="225.2" class="st1" width="42.9" height="60"/>
		<rect x="398" y="225.2" class="st1" width="42.9" height="60"/>
		<rect x="324.5" y="225.2" class="st1" width="42.9" height="60"/>
		<rect x="471.6" y="225.2" class="st1" width="42.9" height="60"/>
	</g>
	<rect x="251" y="152" class="st2" width="337" height="25.4"/>
	<text transform="matrix(1 0 0 1 274.989 174.6094)" class="st1 st3 st4">Enter Code Here:</text>
</g>
<g>
	<path d="M171.7,563.9h-281L71.4,310c36.7-51.5,108.1-63.5,159.6-26.9l14.2-51.7c51.5,36.7,49.3,159.8,12.7,211.3L171.7,563.9z"/>
	<path class="st1" d="M219.3,446.2H101.5c-13.2,0-24-10.8-24-24v-46c0-13.2,10.8-24,24-24h117.8c13.2,0,24,10.8,24,24v46
		C243.3,435.4,232.5,446.2,219.3,446.2z"/>
	<path d="M220.8,436.1H100c-13.3,0-24.2-10.9-24.2-24.2V164.2c0-13.3,10.9-24.2,24.2-24.2h120.8c13.3,0,24.2,10.9,24.2,24.2v247.7
		C245.1,425.2,234.2,436.1,220.8,436.1z"/>
	<linearGradient id="SVGID_2_" gradientUnits="userSpaceOnUse" x1="159.234" y1="438.8499" x2="161.3071" y2="178.6683">
		<stop  offset="0" style="stop-color:#FFA68C"/>
		<stop  offset="1" style="stop-color:#D6219C"/>
	</linearGradient>
	<path class="st5" d="M231.7,167.8H89.2v240.6h142.5V167.8z"/>
	<path d="M61,431.9l-86.6,14.3l74.1-122.7c9.8-18.5,33.2-32.4,52.9-21.2l0,0c16.9,11.1,18.7,37.7,7,54.1L61,431.9z"/>
	<path d="M214.1,278.2c-16.3-9.2-22-28.7-12.4-42.2l0,0c8.7-12,26.3-15.5,40.4-7.4c2,1.1,3.1,3.3,2.9,5.5l-3.8,50.9
		c-0.3,4.4-5.2,6.9-9,4.5L214.1,278.2z"/>
	<path d="M213.5,329.9c-0.1-0.1-0.2-0.1-0.4-0.2c-14.7-6.7-20.6-24.7-12.6-38.8l0,0c7.1-12.5,22.3-17.3,35.1-11.8
		c2.2,1,3.6,3.1,3.6,5.5l-0.9,49.2c-0.1,4.4-4.8,7.2-8.7,5L213.5,329.9z"/>
	<path d="M277.3,301.8c14.9,6.7,20.8,24.7,12.7,38.9l0,0c-7.8,13.7-25.4,18.2-38.7,9.9l1.1-62.6L277.3,301.8z"/>
	<path d="M284.3,347.8c0,0,10.2,21.1,5,40c-4.6,16.6-28.3,50.4-28.3,50.4l-8.7-110.5L284.3,347.8z"/>
	<path d="M281,308.1L281,308.1c-8.7,9.8-23.4,11-33.6,3.3c-1.5-1.1-2.3-2.8-2.3-4.7l0.1-62.9c0-5.1,6-7.7,9.8-4.3
		C269.3,252.2,293.1,279.2,281,308.1z"/>
	<path d="M235.9,394.5c-14.5,1.8-27.4-9.4-27.8-24v0c-0.4-14.1,11.1-25.7,25.2-25.5l22.4,11.5L235.9,394.5z"/>
	<path class="st6" d="M298.4,255.2H131.1c-3.8,0-7-3.1-7-7v-39.7l-8.1-7.9c-1.9-1.9-0.6-5.1,2.1-5.1h180.3c3.8,0,7,3.1,7,7v45.8
		C305.4,252.1,302.3,255.2,298.4,255.2z"/>
	<text transform="matrix(1 0 0 1 137.6218 242.4448)" class="st1 st7 st8 st9">54321</text>
</g>
</svg>
